# xmcd CD database file
#
# Track frame offsets:
#	150
#	9507
#	41391
#	101194
#	164607
#	185175
#	201145
#	263035
#	315723
#
# Disc length: 4745 seconds
#
# Revision: 0
# Processed by: cddbd v1.5.2PL0 Copyright (c) Steve Scherf et al.
# Submitted via: CDex 1.70beta2
#
DISCID=7b128709
DTITLE=miles davis - live in berlin 1969
DYEAR=2010
DGENRE=Jazz
TTITLE0=introduction
TTITLE1=Directions
TTITLE2=Bitches Brew
TTITLE3=It's About That Time
TTITLE4=I Fall In Love Too Easily
TTITLE5=Sanctuary
TTITLE6=milestones
TTITLE7=footprints
TTITLE8=round midnight/I Fall In Love Too Easily
EXTD=YEAR: 2010
EXTT0=
EXTT1=
EXTT2=
EXTT3=
EXTT4=
EXTT5=
EXTT6=
EXTT7=
EXTT8=
PLAYORDER=
